<svg width="112" height="109" viewBox="0 0 112 109" fill="none" xmlns="http://www.w3.org/2000/svg">
<path d="M7.32335 24.1C11.2233 18 17.2233 14.4 23.3233 11.2C29.7233 7.8 36.4233 4.8 42.9233 1.6C46.7233 -0.3 50.4233 -1 53.9233 2.3C56.6233 4.7 57.1233 7.7 56.4233 11C55.8233 14.1 53.3233 15.5 50.9233 16.7C44.3233 20 37.7233 23.3 31.0233 26.3C20.0233 31.5 14.1233 42.5 18.3233 53.8C22.0233 64.1 32.5233 70.9 45.1233 66.3C52.8233 63.5 60.1233 59.5 67.6233 55.9C71.7233 53.9 75.6233 52.3 79.8233 56C83.8233 59.5 83.9233 66.2 79.2233 68.7C68.4233 74.3 57.9233 80.9 45.9233 83.7C33.0233 86.7 17.5233 81.3 8.72335 70.2C3.42335 63.5 0.323346 56.4 0.0233455 48.3C-0.276654 39.5 2.32335 31.4 7.32335 24.1Z" fill="#294795"/>
<path d="M104.523 84.7C100.623 90.8 94.6233 94.4 88.5233 97.6C82.1233 101 75.4233 104 68.9233 107.2C65.1233 109.1 61.4233 109.8 57.9233 106.5C55.2233 104.1 54.7233 101.1 55.4233 97.8C56.0233 94.7 58.5233 93.3 60.9233 92.1C67.5233 88.8 74.1233 85.5 80.8233 82.5C91.9233 77.4 97.7233 66.4 93.6233 55.1C89.8233 44.8 79.3233 38 66.7233 42.6C59.0233 45.4 51.7233 49.4 44.2233 53C40.1233 55 36.2233 56.6 32.0233 52.9C28.0233 49.4 27.9233 42.7 32.6233 40.2C43.4233 34.6 53.9233 28 65.9233 25.2C78.8233 22.2 94.3233 27.6 103.123 38.7C108.323 45.4 111.423 52.5 111.823 60.6C112.123 69.3 109.523 77.5 104.523 84.7Z" fill="#D3D93C"/>
</svg>
